<svg xmlns="http://www.w3.org/2000/svg" viewBox="0 0 1060 610" width="1060" height="610" style="max-width:100%;height:auto" role="img" aria-labelledby="multisource-dark-title multisource-dark-desc">
  <title id="multisource-dark-title">Fabric data sources to an Excel workbook with Fabric-RLM</title>
  <desc id="multisource-dark-desc">Illustrative workflow: 2 semantic models, 2 Delta tables, 3 CSV files, and 1 PDF feed Fabric-RLM inside a Microsoft Fabric notebook. Optional skills provide user-supplied playbooks and domain rules, not automatically loaded context. The model writes Python, queries semantic models via DAX, reads Delta tables and files, and builds and reopens an Excel workbook saved to Lakehouse Files. You choose the sources, skills, and acceptance checks.</desc>
  <defs>
    <marker id="multisource-dark-arrow" viewBox="0 0 10 10" refX="10" refY="5" markerWidth="7" markerHeight="7" orient="auto"><path d="M0 0 L10 5 L0 10 z" fill="#6e7681"/></marker>
  </defs>
  <g font-family="ui-sans-serif, -apple-system, 'Segoe UI', Roboto, Helvetica, Arial, sans-serif" font-size="16" fill="#d1d5db">
    <rect x="24" y="46" width="300" height="500" rx="10" fill="#30363d" stroke="#57606a"/>
    <text x="44" y="80" font-size="20" font-weight="600">Fabric data sources</text>
    <text x="44" y="104" font-size="14" fill="#b1bac4">Models, Lakehouse tables and files</text>

    <rect x="44" y="122" width="260" height="88" rx="10" fill="#121d2f" stroke="#4493f8"/>
    <text x="64" y="156" font-size="18" font-weight="600">2 semantic models</text>
    <text x="64" y="182" fill="#b1bac4">Manufacturing Ops, ARR</text>
    <rect x="44" y="222" width="260" height="88" rx="10" fill="#252a31" stroke="#57606a"/>
    <text x="64" y="256" font-size="18" font-weight="600">2 Delta tables</text>
    <text x="64" y="282" fill="#b1bac4">production, inventory</text>
    <rect x="44" y="322" width="260" height="88" rx="10" fill="#252a31" stroke="#57606a"/>
    <text x="64" y="356" font-size="18" font-weight="600">3 CSV files</text>
    <text x="64" y="382" fill="#b1bac4">targets, headcount, FX rates</text>
    <rect x="44" y="422" width="260" height="88" rx="10" fill="#252a31" stroke="#57606a"/>
    <text x="64" y="456" font-size="18" font-weight="600">1 PDF</text>
    <text x="64" y="482" fill="#b1bac4">operations review brief</text>

    <rect x="390" y="20" width="350" height="100" rx="10" fill="#30363d" stroke="#57606a"/>
    <text x="410" y="49" font-size="20" font-weight="600">Skills (optional context)</text>
    <text x="410" y="76" fill="#b1bac4">Playbooks and domain rules</text>
    <text x="410" y="101" font-size="14" fill="#b1bac4">You supply context; no automatic loading.</text>

    <rect x="390" y="165" width="350" height="310" rx="10" fill="#252a31" stroke="#57606a"/>
    <text x="410" y="201" font-size="20" font-weight="600">Microsoft Fabric notebook</text>
    <rect x="408" y="224" width="314" height="233" rx="8" fill="#102b2c" stroke="#39b9b2"/>
    <text x="428" y="258" font-size="22" font-weight="600">Fabric-RLM</text>
    <text x="428" y="288" fill="#b1bac4">The model writes Python to:</text>
    <path d="M428 305 H702" fill="none" stroke="#39b9b2" opacity="0.35"/>
    <text x="428" y="333">Query semantic models via DAX</text>
    <text x="428" y="365">Read Delta tables and files</text>
    <text x="428" y="397">Build and reopen the workbook</text>
    <text x="428" y="434" font-size="14" fill="#b1bac4">Guided by your task and checks</text>

    <rect x="784" y="190" width="252" height="280" rx="10" fill="#0f2913" stroke="#3fb950"/>
    <g aria-hidden="true">
      <rect x="804" y="212" width="100" height="56" rx="4" fill="#252a31" stroke="#3fb950"/>
      <path d="M808 212 H900 Q904 212 904 216 V228 H804 V216 Q804 212 808 212 Z" fill="#3fb950"/>
      <path d="M804 228 H904 M804 248 H904 M830 228 V268 M866 228 V268" fill="none" stroke="#3fb950"/>
    </g>
    <text x="804" y="300" font-size="20" font-weight="600">Excel workbook</text>
    <text x="804" y="328" font-weight="600">ops_review.xlsx</text>
    <text x="804" y="364" fill="#b1bac4">Saved to Lakehouse Files</text>
    <text x="804" y="407" font-size="14" fill="#b1bac4">Summary / detail / source notes</text>

    <g fill="none" stroke="#6e7681" stroke-width="1.8" marker-end="url(#multisource-dark-arrow)">
      <path d="M324 332 H390"/>
      <path d="M565 120 V165"/>
      <path d="M740 332 H784"/>
    </g>
    <rect x="24" y="562" width="1012" height="34" rx="8" fill="#30363d" stroke="#57606a"/>
    <text x="530" y="584" font-size="14" fill="#b1bac4" text-anchor="middle">Illustrative workflow. You choose the sources, skills, and acceptance checks.</text>
  </g>
</svg>
